ffmpeg version 4.3 Copyright (c) 2000-2020 the FFmpeg developers
  built with gcc 7.3.0 (crosstool-NG 1.23.0.449-a04d0)
  configuration: --prefix=/opt/conda/conda-bld/ffmpeg_1597178665428/_h_env_placehold_placehold_placehold_placehold_placehold_placehold_placehold_placehold_placehold_placehold_placehold_placehold_placehold_placehold_placehold_placehold_placehold_placehold_placehold_placehold_placeh --cc=/opt/conda/conda-bld/ffmpeg_1597178665428/_build_env/bin/x86_64-conda_cos6-linux-gnu-cc --disable-doc --disable-openssl --enable-avresample --enable-gnutls --enable-hardcoded-tables --enable-libfreetype --enable-libopenh264 --enable-pic --enable-pthreads --enable-shared --disable-static --enable-version3 --enable-zlib --enable-libmp3lame
  libavutil      56. 51.100 / 56. 51.100
  libavcodec     58. 91.100 / 58. 91.100
  libavformat    58. 45.100 / 58. 45.100
  libavdevice    58. 10.100 / 58. 10.100
  libavfilter     7. 85.100 /  7. 85.100
  libavresample   4.  0.  0 /  4.  0.  0
  libswscale      5.  7.100 /  5.  7.100
  libswresample   3.  7.100 /  3.  7.100
Input #0, mp3, from 'data/test.mp3':
  Metadata:
    major_brand     : dash
    minor_version   : 0
    compatible_brands: iso6mp41
    encoder         : Lavf58.76.100
  Duration: 00:07:02.32, start: 0.025056, bitrate: 143 kb/s
    Stream #0:0: Audio: mp3, 44100 Hz, stereo, fltp, 128 kb/s
    Metadata:
      encoder         : Lavc58.13
    Stream #0:1: Video: png, rgb24(pc), 1280x720, 90k tbr, 90k tbn, 90k tbc (attached pic)
    Metadata:
      comment         : Other
Stream mapping:
  Stream #0:0 -> #0:0 (mp3 (mp3float) -> pcm_s16le (native))
Press [q] to stop, [?] for help
Output #0, wav, to 'data/test.mp3.WAV.wav':
  Metadata:
    major_brand     : dash
    minor_version   : 0
    compatible_brands: iso6mp41
    ISFT            : Lavf58.45.100
    Stream #0:0: Audio: pcm_s16le ([1][0][0][0] / 0x0001), 16000 Hz, stereo, s16, 512 kb/s
    Metadata:
      encoder         : Lavc58.91.100 pcm_s16le
size=   18176kB time=00:04:51.50 bitrate= 510.8kbits/s speed= 583x    size=   26392kB time=00:07:02.27 bitrate= 512.0kbits/s speed= 585x    
video:0kB audio:26392kB subtitle:0kB other streams:0kB global headers:0kB muxing overhead: 0.000289%
